# xmcd
#
# Track frame offsets: 
#        150
#        18112
#        35592
#        51805
#        69062
#        83912
#        98150
#        116367
#        131020
#        148497
#        164365
#        179970
#
# Disc length: 2602 seconds
#
# Revision: 4
# Processed by: cddbd v1.5.2PL0 Copyright (c) Steve Scherf et al.
# Submitted via: ExactAudioCopy v0.99pb5
#
DISCID=a50a280c
DTITLE=La Mafia - Ahora Y Siempre
DYEAR=1992
DGENRE=Tejano
TTITLE0=Que Hare Yo
TTITLE1=No Me Pidas Mas
TTITLE2=A Pesar De Ti
TTITLE3=No Soy El Mismo
TTITLE4=Donde El Viento Me Lleve
TTITLE5=Ahora Y Siempre
TTITLE6=Gracias
TTITLE7=Muero Sin Ti
TTITLE8=El Amor
TTITLE9=Dile
TTITLE10=Me Estoy Enamorando
TTITLE11=Ay Amiga Me Voy
EXTD=
EXTT0=
EXTT1=
EXTT2=
EXTT3=
EXTT4=
EXTT5=
EXTT6=
EXTT7=
EXTT8=
EXTT9=
EXTT10=
EXTT11=
PLAYORDER=
